<?xml version="1.0" encoding="UTF-8"?>
<!DOCTYPE svg PUBLIC "-//W3C//DTD SVG 1.1//EN" "http://www.w3.org/Graphics/SVG/1.1/DTD/svg11.dtd">
<!-- Creator: CorelDRAW 2019 (64-Bit) -->
<svg xmlns="http://www.w3.org/2000/svg" xml:space="preserve" width="170mm" height="170mm" version="1.1" style="shape-rendering:geometricPrecision; text-rendering:geometricPrecision; image-rendering:optimizeQuality; fill-rule:evenodd; clip-rule:evenodd"
viewBox="0 0 17000 17000"
 xmlns:xlink="http://www.w3.org/1999/xlink"
 xmlns:xodm="http://www.corel.com/coreldraw/odm/2003"
 enable-background="new 0 0 512 512">
 <defs>
  <style type="text/css">
   <![CDATA[
    .str0 {stroke:#FEFEFE;stroke-width:20;stroke-miterlimit:22.9256}
    .fil0 {fill:#FEFEFE}
   ]]>
  </style>
 </defs>
 <g id="Layer_x0020_1">
  <metadata id="CorelCorpID_0Corel-Layer"/>
  <g id="_3239359588128">
   <g>
    <path class="fil0 str0" d="M13281.89 3718.11c-1279.34,-1279.29 -2980.27,-1983.85 -4789.49,-1983.85 -1809.22,0 -3510.15,704.56 -4789.49,1983.85 -1279.29,1279.34 -1983.85,2980.27 -1983.85,4789.49 0,1809.22 704.56,3510.15 1983.85,4789.49 1279.34,1279.29 2980.27,1983.85 4789.49,1983.85 1809.22,0 3510.15,-704.56 4789.49,-1983.85 1279.29,-1279.34 1983.85,-2980.27 1983.85,-4789.49 0,-1809.22 -704.56,-3510.15 -1983.85,-4789.49zm-4789.49 10769.07c-3297.16,0 -5979.58,-2682.43 -5979.58,-5979.58 0,-3297.15 2682.43,-5979.58 5979.58,-5979.58 3297.15,0 5979.58,2682.43 5979.58,5979.58 0,3297.15 -2682.43,5979.58 -5979.58,5979.58z"/>
    <path class="fil0 str0" d="M11635.17 8185.87l-4762.5 -3439.58c-120.81,-87.26 -280.35,-99.46 -413.04,-31.62 -132.69,67.84 -216.19,204.31 -216.19,353.35l0 6879.17c0,149.04 83.5,285.51 216.19,353.35 56.99,29.16 118.93,43.52 180.63,43.52 81.94,0 163.49,-25.35 232.41,-75.14l4762.5 -3439.58c103.29,-74.61 164.52,-194.31 164.52,-321.73 0,-127.42 -61.17,-247.12 -164.52,-321.73l0 -0.01zm-4597.98 2985.13l0 -5326.8 3687.79 2663.4 -3687.79 2663.4z"/>
   </g>
  </g>
 </g>
</svg>
